P3
3 2
255
76 76 76 
152 152 152 
36 36 36 
229 229 229 
255 255 255 
0 0 0 
